<mxfile host="app.diagrams.net" modified="2024-07-23T02:23:02.986Z" agent="Mozilla/5.0 (Macintosh; Intel Mac OS X 10_15_7) AppleWebKit/537.36 (KHTML, like Gecko) Chrome/124.0.0.0 Safari/537.36" version="24.6.4" etag="hBvbn96T-BSuBNB22Xx6" type="github">
  <diagram name="페이지-1" id="sw4f_U8RQehwip4vBhjD">
    <mxGraphModel>
      <root>
        <mxCell id="0" />
        <mxCell id="1" parent="0" />
      </root>
    </mxGraphModel>
  </diagram>
</mxfile>
